<?xml version="1.0" encoding="UTF-8" standalone="no" ?>
<!DOCTYPE svg PUBLIC "-//W3C//DTD SVG 1.1//EN" "http://www.w3.org/Graphics/SVG/1.1/DTD/svg11.dtd">
<svg xmlns="http://www.w3.org/2000/svg" xmlns:xlink="http://www.w3.org/1999/xlink" version="1.1" width="500" height="500" viewBox="0 0 500 500" xml:space="preserve">
<desc>Created with Fabric.js 3.6.3</desc>
<defs>
</defs>
<g transform="matrix(0 2.4857415797005267 -2.5255870033080012 0 245.1391304347879 220.2480219361591)"  >
<path style="stroke: none; stroke-width: 0; stroke-dasharray: none; stroke-linecap: butt; stroke-dashoffset: 0; stroke-linejoin: miter; stroke-miterlimit: 4; fill: rgb(213,176,56); fill-rule: nonzero; opacity: 1;"  transform=" translate(-49.98457927777775, -50.015927043733676)" d="m 91.758 52.863 c -0.039062 0.46875 -0.027343 0.99219 -0.11328 1.5625 c -0.089843 0.57031 -0.18359 1.1875 -0.28906 1.8594 c -0.11328 0.66797 -0.19141 1.3984 -0.35938 2.1562 c -0.19922 0.75391 -0.41016 1.5508 -0.63281 2.3984 c -0.97656 3.3359 -2.4922 7.3711 -5.2891 11.359 c -2.7344 3.9883 -6.5273 8.0781 -11.555 11.242 c -0.64062 0.36719 -1.293 0.73828 -1.9453 1.1172 c -0.65625 0.37109 -1.3008 0.77734 -2.0156 1.0664 c -1.4102 0.61719 -2.8008 1.3359 -4.332 1.7773 c -0.75391 0.24609 -1.5078 0.51172 -2.2773 0.74609 c -0.78516 0.17578 -1.5781 0.35547 -2.375 0.53516 c -0.39844 0.089844 -0.79688 0.17969 -1.1992 0.26953 c -0.40234 0.085937 -0.80859 0.10938 -1.2148 0.16406 c -0.80859 0.097656 -1.625 0.19922 -2.4453 0.30078 c -0.39844 0.070312 -0.83984 0.058593 -1.2695 0.070312 c -0.43359 0.007813 -0.86719 0.015625 -1.3008 0.027344 c -0.43359 0.007813 -0.87109 0.019531 -1.3125 0.027344 l -0.65625 0.015625 l -0.58203 -0.050782 c -1.707 -0.16016 -3.4414 -0.19531 -5.1484 -0.59375 c -3.457 -0.51562 -6.8242 -1.7539 -10.094 -3.2188 c -0.79687 -0.41016 -1.6016 -0.82422 -2.4062 -1.2383 c -0.79687 -0.42188 -1.5352 -0.96484 -2.3086 -1.4414 l -1.1484 -0.73828 c -0.36719 -0.27344 -0.71875 -0.56641 -1.0781 -0.84375 c -0.71094 -0.57812 -1.457 -1.1094 -2.1406 -1.7266 c -2.7617 -2.4336 -5.1758 -5.2773 -7.2383 -8.3828 c -0.46875 -0.80469 -0.94141 -1.6094 -1.4141 -2.418 c -0.11328 -0.20312 -0.24219 -0.39844 -0.34766 -0.60547 l -0.29297 -0.63672 l -0.58984 -1.2734 l -0.60156 -1.2695 c -0.1875 -0.42969 -0.32031 -0.87891 -0.48438 -1.3203 c -0.30078 -0.88672 -0.66016 -1.7578 -0.91797 -2.6602 l -0.67969 -2.7344 l -0.17578 -0.68359 l -0.097656 -0.67578 l -0.20313 -1.3516 l -0.21094 -1.3516 c -0.085937 -0.4375 -0.066406 -0.98047 -0.10156 -1.4648 l -0.14062 -2.9062 c 0 0.007813 0 -0.074218 0.003906 -0.058594 l 0.003906 -0.089843 l 0.023438 -0.52734 l 0.035156 -0.70703 l 0.066406 -1.4141 c 0.035156 -0.46875 0.011719 -0.94531 0.097656 -1.4102 l 0.21094 -1.3945 l 0.20703 -1.3984 l 0.10156 -0.69922 l 0.17187 -0.68359 l 0.67578 -2.7383 c 0.25781 -0.90234 0.61719 -1.7734 0.91797 -2.6602 c 0.16406 -0.4375 0.29688 -0.89062 0.48438 -1.3203 l 0.60156 -1.2695 l 0.58594 -1.2773 l 0.29297 -0.63672 c 0.10547 -0.20703 0.23438 -0.40625 0.34766 -0.60547 c 0.47266 -0.80859 0.94141 -1.6133 1.4102 -2.418 c 2.0625 -3.1055 4.4844 -5.9453 7.2383 -8.3867 c 0.67969 -0.61719 1.4297 -1.1484 2.1406 -1.7266 c 0.35938 -0.28125 0.71484 -0.57422 1.0781 -0.84766 l 1.1523 -0.73828 c 0.77344 -0.47656 1.5078 -1.0195 2.3086 -1.4414 c 0.80469 -0.41406 1.6094 -0.82422 2.4062 -1.2344 l 0.59766 -0.30859 l 0.625 -0.24609 l 1.2461 -0.49609 c 0.83203 -0.32031 1.6406 -0.71094 2.5039 -0.91797 c 0.85156 -0.24609 1.6992 -0.49609 2.5469 -0.73828 c 0.84375 -0.23828 1.6953 -0.33203 2.5391 -0.50781 c 1.6406 -0.39453 3.4844 -0.4375 5.2305 -0.60156 l 0.59766 -0.046875 l 0.63672 0.015625 c 0.42578 0.007813 0.85156 0.015625 1.2734 0.027344 c 0.84375 0.039062 1.6953 -0.011719 2.5234 0.09375 c 0.83203 0.10156 1.6602 0.20312 2.4805 0.30078 c 0.41016 0.058594 0.82422 0.082031 1.2266 0.16797 c 0.40234 0.089844 0.80078 0.17969 1.1992 0.26953 c 0.79688 0.17969 1.5898 0.35938 2.375 0.53516 c 0.76953 0.23437 1.5234 0.5 2.2773 0.75 c 1.5312 0.44531 2.9219 1.1602 4.332 1.7812 c 0.71484 0.28906 1.3633 0.69531 2.0195 1.0664 c 0.65625 0.375 1.3047 0.75 1.9453 1.1172 c 5.0312 3.1641 8.8203 7.2578 11.555 11.246 c 2.7969 3.9883 4.3086 8.0234 5.2852 11.359 c 0.22266 0.84375 0.43359 1.6445 0.63281 2.3984 c 0.16797 0.75781 0.24609 1.4883 0.35938 2.1562 c 0.10547 0.67187 0.19922 1.293 0.28906 1.8594 c 0.085938 0.57031 0.074219 1.0977 0.11328 1.5625 c 0.097656 1.8711 0.15234 2.8711 0.15234 2.8711 s -0.046876 -1 -0.13672 -2.8711 c -0.035157 -0.46875 -0.019531 -0.99219 -0.10156 -1.5625 c -0.085937 -0.57031 -0.17969 -1.1914 -0.27734 -1.8633 c -0.11328 -0.66797 -0.18359 -1.3984 -0.34766 -2.1602 c -0.1875 -0.75781 -0.39062 -1.5586 -0.60156 -2.4102 c -0.92578 -3.3594 -2.3828 -7.4219 -5.0469 -11.547 c -2.6211 -4.1289 -6.3594 -8.3477 -11.312 -11.871 c -4.9727 -3.4688 -11.203 -6.1445 -18.184 -7.1953 c -0.86719 -0.16016 -1.7578 -0.16797 -2.6484 -0.25781 c -0.44531 -0.035156 -0.89453 -0.070313 -1.3438 -0.10547 l -0.67578 -0.050781 c 0.023438 -0.003906 -0.12891 -0.003906 -0.14453 -0.003906 h -0.082031 l -0.16406 0.003906 l -0.33203 0.007813 c -1.7734 0.058593 -3.5156 -0.015626 -5.4219 0.29687 c -3.793 0.35547 -7.4531 1.4141 -11.094 2.8477 c -0.89062 0.40234 -1.7812 0.80859 -2.6797 1.2148 c -0.89453 0.41797 -1.7227 0.96094 -2.5938 1.4414 l -1.2969 0.74609 c -0.41406 0.27734 -0.81641 0.57422 -1.2266 0.86328 c -0.80859 0.58984 -1.6562 1.1406 -2.4375 1.7773 c -3.1484 2.543 -5.9102 5.6172 -8.3125 8.9883 c -2.3477 3.4219 -4.1523 7.2383 -5.457 11.238 l -0.8125 3.0547 l -0.19531 0.76562 l -0.125 0.78125 l -0.24609 1.5664 l -0.24219 1.5664 c -0.09375 0.51953 -0.078125 1.0508 -0.12109 1.5781 l -0.085937 1.582 l -0.042969 0.79297 l -0.019531 0.39453 l -0.011719 0.19922 l -0.003906 0.097656 c 0 0.085938 -0.007813 -0.050781 0 0.21875 l 0.15625 2.9961 c 0.042969 0.50781 0.019531 0.97266 0.11328 1.5195 l 0.24219 1.6094 l 0.25 1.6094 l 0.125 0.80078 l 0.19531 0.76563 l 0.80859 3.0547 c 1.3086 4 3.1055 7.8203 5.457 11.242 c 2.4023 3.375 5.168 6.4414 8.3125 8.9922 c 0.78125 0.63672 1.6328 1.1875 2.4414 1.7773 c 0.41016 0.28906 0.8125 0.58594 1.2266 0.86328 l 1.2969 0.74609 c 0.87109 0.48047 1.6992 1.0234 2.5938 1.4414 c 0.89844 0.40625 1.793 0.8125 2.6797 1.2148 c 3.6211 1.4375 7.3398 2.5 11.059 2.8477 c 1.8438 0.30859 3.6953 0.24609 5.5039 0.30469 l 0.33984 0.007813 l 0.16797 0.003906 l 0.085937 0.003907 c 0.015625 0.003906 0.16797 -0.007813 0.14453 -0.007813 l 0.65625 -0.050781 c 0.4375 -0.035156 0.87109 -0.070313 1.3047 -0.10547 s 0.86719 -0.070313 1.2969 -0.10547 c 0.43359 -0.039062 0.85547 -0.050781 1.3008 -0.14844 c 0.87891 -0.15625 1.75 -0.31641 2.6172 -0.47266 c 0.42969 -0.085937 0.86719 -0.14062 1.2812 -0.25391 c 0.41406 -0.11719 0.82812 -0.23828 1.2383 -0.35547 c 0.82031 -0.23828 1.6328 -0.47266 2.4375 -0.70313 c 0.78516 -0.28906 1.5547 -0.61328 2.3203 -0.91406 c 1.5586 -0.53906 2.9688 -1.3516 4.3828 -2.0625 c 0.71875 -0.33203 1.3672 -0.78516 2.0195 -1.1992 c 0.65234 -0.41797 1.2969 -0.83203 1.9375 -1.2422 c 4.9531 -3.5273 8.6914 -7.75 11.312 -11.879 c 2.6602 -4.125 4.1172 -8.1875 5.043 -11.547 c 0.21094 -0.84766 0.41406 -1.6523 0.60156 -2.4102 c 0.16406 -0.76172 0.23828 -1.4922 0.34766 -2.1602 c 0.10156 -0.67188 0.19531 -1.293 0.27734 -1.8633 c 0.082031 -0.57031 0.066406 -1.0977 0.10156 -1.5625 c 0.089844 -1.8711 0.13672 -2.8711 0.13672 -2.8711 c 0.023437 -0.015625 -0.03125 0.97656 -0.12891 2.8477 z" stroke-linecap="round" />
</g>
<g transform="matrix(1 0 0 1 247.38913043478806 357.4087973839867)" style=""  ><path fill="#D5B038" opacity="1" d="M-112.32 17.97Q-117.45 17.97-121.44 15.57Q-125.44 13.18-127.61 9.07Q-129.79 4.97-129.79 0.12L-129.79 0.12Q-129.79-5.56-126.92-9.61Q-124.06-13.66-119.57-15.70Q-115.08-17.73-110.39-17.73L-110.39-17.73Q-105.16-17.73-101.19-15.28Q-97.22-12.83-95.10-8.81Q-92.98-4.79-92.98-0.27L-92.98-0.27Q-92.98 4.75-95.63 8.93Q-98.27 13.12-102.71 15.55Q-107.14 17.97-112.32 17.97L-112.32 17.97ZM-110.39 16.81Q-106.65 16.81-103.64 14.99Q-100.64 13.18-98.90 9.65Q-97.17 6.12-97.17 1.28L-97.17 1.28Q-97.17-3.90-99.10-7.93Q-101.03-11.95-104.52-14.21Q-108.02-16.47-112.71-16.47L-112.71-16.47Q-118.77-16.47-122.18-12.56Q-125.60-8.64-125.60-1.81L-125.60-1.81Q-125.60 3.37-123.67 7.64Q-121.74 11.91-118.27 14.36Q-114.80 16.81-110.39 16.81L-110.39 16.81Z"/><path fill="#D5B038" opacity="1" d="M-46.31-17.13Q-46.15-17.13-46.15-16.80Q-46.15-16.47-46.31-16.47L-46.31-16.47Q-48.63-16.47-49.67-15.20Q-50.72-13.93-50.72-11.07L-50.72-11.07L-50.72 17.97Q-50.72 18.08-51.00 18.14Q-51.27 18.19-51.38 18.08L-51.38 18.08L-76.73-12.61L-77.22-13.16L-77.22 11.30Q-77.22 14.17-76.20 15.41Q-75.18 16.65-72.92 16.65L-72.92 16.65Q-72.76 16.65-72.76 16.98Q-72.76 17.31-72.92 17.31L-72.92 17.31Q-74.30 17.31-75.02 17.25L-75.02 17.25L-77.77 17.20L-80.58 17.25Q-81.36 17.31-82.84 17.31L-82.84 17.31Q-82.95 17.31-82.95 16.98Q-82.95 16.65-82.84 16.65L-82.84 16.65Q-80.47 16.65-79.48 15.41Q-78.49 14.17-78.49 11.30L-78.49 11.30L-78.49-14.48Q-80.64-16.47-82.84-16.47L-82.84-16.47Q-83.01-16.47-83.01-16.80Q-83.01-17.13-82.84-17.13L-82.84-17.13L-80.80-17.07Q-80.14-17.02-78.99-17.02L-78.99-17.02Q-77.77-17.02-77.00-17.07Q-76.23-17.13-75.79-17.13L-75.79-17.13Q-75.35-17.13-75.16-16.94Q-74.96-16.74-74.52-16.08L-74.52-16.08Q-73.86-15.09-73.20-14.26L-73.20-14.26L-51.99 11.80L-51.99-11.07Q-51.99-13.93-52.95-15.20Q-53.92-16.47-56.17-16.47L-56.17-16.47Q-56.28-16.47-56.28-16.80Q-56.28-17.13-56.17-17.13L-56.17-17.13L-54.03-17.07Q-52.37-16.96-51.33-16.96L-51.33-16.96Q-50.33-16.96-48.57-17.07L-48.57-17.07L-46.31-17.13Z"/><path fill="#D5B038" opacity="1" d="M-13.69 9.10Q-13.69 8.99-13.47 8.99L-13.47 8.99Q-13.31 8.99-13.17 9.04Q-13.03 9.10-13.03 9.21L-13.03 9.21Q-13.53 12.68-13.53 16.48L-13.53 16.48Q-13.53 16.92-13.72 17.12Q-13.91 17.31-14.41 17.31L-14.41 17.31L-37.50 17.31Q-37.61 17.31-37.61 16.98Q-37.61 16.65-37.50 16.65L-37.50 16.65Q-35.40 16.65-34.44 16.37Q-33.47 16.10-33.12 15.30Q-32.76 14.50-32.76 12.85L-32.76 12.85L-32.76-12.67Q-32.76-14.32-33.12-15.09Q-33.47-15.86-34.44-16.16Q-35.40-16.47-37.50-16.47L-37.50-16.47Q-37.61-16.47-37.61-16.80Q-37.61-17.13-37.50-17.13L-37.50-17.13L-15.35-17.13Q-14.85-17.13-14.85-16.63L-14.85-16.63L-14.74-9.86Q-14.74-9.69-15.01-9.66Q-15.29-9.63-15.35-9.80L-15.35-9.80Q-15.51-12.72-17.11-14.35Q-18.71-15.97-21.35-15.97L-21.35-15.97L-24.71-15.97Q-26.64-15.97-27.55-15.67Q-28.46-15.37-28.82-14.62Q-29.18-13.88-29.18-12.39L-29.18-12.39L-29.18-1.20L-22.45-1.20Q-19.81-1.20-18.68-2.09Q-17.55-2.97-17.55-5.06L-17.55-5.06Q-17.55-5.17-17.22-5.17Q-16.89-5.17-16.89-5.06L-16.89-5.06L-16.94-0.60Q-16.94 1.00-16.89 1.83L-16.89 1.83L-16.83 4.47Q-16.83 4.58-17.16 4.58Q-17.49 4.58-17.49 4.47L-17.49 4.47Q-17.49 2.05-18.68 1.00Q-19.86-0.05-22.62-0.05L-22.62-0.05L-29.18-0.05L-29.18 12.63Q-29.18 14.17-28.84 14.88Q-28.51 15.60-27.63 15.88Q-26.75 16.15-24.88 16.15L-24.88 16.15L-20.47 16.15Q-17.82 16.15-16.06 14.28Q-14.30 12.41-13.69 9.10L-13.69 9.10Z"/><path fill="#D5B038" opacity="1" d="M5.87 12.85Q5.87 14.50 6.20 15.30Q6.53 16.10 7.49 16.37Q8.46 16.65 10.55 16.65L10.55 16.65Q10.72 16.65 10.72 16.98Q10.72 17.31 10.55 17.31L10.55 17.31Q8.90 17.31 7.91 17.25L7.91 17.25L3.99 17.20L0.19 17.25Q-0.80 17.31-2.51 17.31L-2.51 17.31Q-2.67 17.31-2.67 16.98Q-2.67 16.65-2.51 16.65L-2.51 16.65Q-0.41 16.65 0.55 16.37Q1.52 16.10 1.87 15.30Q2.23 14.50 2.23 12.85L2.23 12.85L2.23-12.67Q2.23-14.32 1.87-15.09Q1.52-15.86 0.55-16.16Q-0.41-16.47-2.51-16.47L-2.51-16.47Q-2.67-16.47-2.67-16.80Q-2.67-17.13-2.51-17.13L-2.51-17.13L0.19-17.07Q2.51-16.96 3.99-16.96L3.99-16.96Q5.65-16.96 7.96-17.07L7.96-17.07L10.55-17.13Q10.72-17.13 10.72-16.80Q10.72-16.47 10.55-16.47L10.55-16.47Q8.51-16.47 7.55-16.14Q6.58-15.81 6.23-15.01Q5.87-14.21 5.87-12.56L5.87-12.56L5.87 12.85Z"/><path fill="#D5B038" opacity="1" d="M56.01 16.65Q56.12 16.65 56.12 16.98Q56.12 17.31 56.01 17.31L56.01 17.31L48.90 17.31Q47.52 17.31 43.75 12.60Q39.98 7.89 34.58-0.54L34.58-0.54Q33.25-0.16 31.60-0.16L31.60-0.16Q30.55-0.16 29.12-0.27L29.12-0.27L29.12 12.85Q29.12 14.55 29.45 15.33Q29.78 16.10 30.75 16.37Q31.71 16.65 33.80 16.65L33.80 16.65Q33.97 16.65 33.97 16.98Q33.97 17.31 33.80 17.31L33.80 17.31Q32.10 17.31 31.10 17.25L31.10 17.25L27.30 17.20L23.56 17.25Q22.56 17.31 20.75 17.31L20.75 17.31Q20.63 17.31 20.63 16.98Q20.63 16.65 20.75 16.65L20.75 16.65Q22.84 16.65 23.83 16.34Q24.82 16.04 25.21 15.27Q25.59 14.50 25.59 12.85L25.59 12.85L25.59-12.67Q25.59-14.32 25.24-15.09Q24.88-15.86 23.91-16.16Q22.95-16.47 20.86-16.47L20.86-16.47Q20.69-16.47 20.69-16.80Q20.69-17.13 20.86-17.13L20.86-17.13L23.56-17.07Q25.87-16.96 27.30-16.96L27.30-16.96Q28.29-16.96 29.18-17.02Q30.06-17.07 30.72-17.13L30.72-17.13Q32.48-17.29 33.91-17.29L33.91-17.29Q38.38-17.29 40.80-15.48Q43.23-13.66 43.23-10.41L43.23-10.41Q43.23-7.76 41.68-5.42Q40.14-3.08 37.61-1.70L37.61-1.70Q42.29 5.30 45.49 9.24Q48.68 13.18 51.16 14.91Q53.64 16.65 56.01 16.65L56.01 16.65ZM29.12-1.65Q30.50-1.42 32.37-1.42L32.37-1.42Q36.17-1.42 37.83-3.05Q39.48-4.68 39.48-8.48L39.48-8.48Q39.48-16.47 32.76-16.47L32.76-16.47Q31.27-16.47 30.53-16.22Q29.78-15.97 29.45-15.17Q29.12-14.37 29.12-12.56L29.12-12.56L29.12-1.65Z"/><path fill="#D5B038" opacity="1" d="M78.21 17.97Q73.09 17.97 69.10 15.57Q65.10 13.18 62.92 9.07Q60.75 4.97 60.75 0.12L60.75 0.12Q60.75-5.56 63.61-9.61Q66.48-13.66 70.97-15.70Q75.46-17.73 80.14-17.73L80.14-17.73Q85.38-17.73 89.34-15.28Q93.31-12.83 95.43-8.81Q97.55-4.79 97.55-0.27L97.55-0.27Q97.55 4.75 94.91 8.93Q92.26 13.12 87.83 15.55Q83.39 17.97 78.21 17.97L78.21 17.97ZM80.14 16.81Q83.89 16.81 86.89 14.99Q89.90 13.18 91.63 9.65Q93.37 6.12 93.37 1.28L93.37 1.28Q93.37-3.90 91.44-7.93Q89.51-11.95 86.01-14.21Q82.51-16.47 77.83-16.47L77.83-16.47Q71.77-16.47 68.35-12.56Q64.94-8.64 64.94-1.81L64.94-1.81Q64.94 3.37 66.86 7.64Q68.79 11.91 72.26 14.36Q75.73 16.81 80.14 16.81L80.14 16.81Z"/><path fill="#D5B038" opacity="1" d="M113.42-10.68Q113.42-8.53 114.47-6.93Q115.52-5.34 117.00-4.26Q118.49-3.19 121.19-1.54L121.19-1.54Q124.06 0.17 125.66 1.33Q127.25 2.49 128.38 4.28Q129.51 6.07 129.51 8.55L129.51 8.55Q129.51 11.19 128.19 13.34Q126.87 15.49 124.31 16.73Q121.74 17.97 118.16 17.97L118.16 17.97Q113.92 17.97 110.39 16.04L110.39 16.04Q110.12 15.88 110.03 15.66Q109.95 15.44 109.90 14.99L109.90 14.99L109.18 7.50Q109.13 7.28 109.43 7.23Q109.73 7.17 109.79 7.39L109.79 7.39Q110.67 11.36 113.07 14.22Q115.46 17.09 119.43 17.09L119.43 17.09Q122.18 17.09 124.09 15.57Q125.99 14.06 125.99 10.75L125.99 10.75Q125.99 8.27 124.88 6.45Q123.78 4.64 122.21 3.45Q120.64 2.27 117.94 0.67L117.94 0.67Q115.30-0.93 113.78-2.09Q112.27-3.24 111.22-5.01Q110.17-6.77 110.17-9.14L110.17-9.14Q110.17-11.89 111.63-13.85Q113.09-15.81 115.43-16.77Q117.78-17.73 120.42-17.73L120.42-17.73Q123.67-17.73 126.87-16.41L126.87-16.41Q127.69-16.14 127.69-15.48L127.69-15.48L128.08-9.14Q128.08-8.92 127.80-8.92Q127.53-8.92 127.47-9.14L127.47-9.14Q127.03-12.00 125.10-14.46Q123.18-16.91 119.54-16.91L119.54-16.91Q116.45-16.91 114.94-15.12Q113.42-13.33 113.42-10.68L113.42-10.68Z"/></g><g transform="matrix(0.22139612461187202 0 0 0.22139612461187202 245.13913043478792 220.24802193615912)"  >
<g style=""   >
		<g transform="matrix(1 0 0 1 0 0)" clip-path="url(#CLIPPATH_27379)"  >
<linearGradient id="SVGID_27378" gradientUnits="userSpaceOnUse" gradientTransform="matrix(1 0 0 1 0 0)"  x1="0" y1="0" x2="693" y2="367">
<stop offset="0%" style="stop-color:rgb(143,94,37);stop-opacity: 1"/>
<stop offset="50%" style="stop-color:rgb(251,244,161);stop-opacity: 1"/>
<stop offset="100%" style="stop-color:rgb(143,94,37);stop-opacity: 1"/>
</linearGradient>
<clipPath id="CLIPPATH_27379" >
	<rect transform="matrix(1 0 0 1 0 0)" x="-346.5" y="-183.5" rx="0" ry="0" width="693" height="367" />
</clipPath>
<path style="stroke: none; stroke-width: 0; stroke-dasharray: none; stroke-linecap: butt; stroke-dashoffset: 0; stroke-linejoin: miter; stroke-miterlimit: 4; fill: url(#SVGID_27378); fill-rule: evenodd; opacity: 1;"  transform=" translate(-346.5, -183.5)" d="M 0 367 l 0 -119 l 84 -35 l 0 153 l -84 1 z m 673 -30 l 11 0 l 0 15 l -11 0 l 0 -15 z m 0 -25 l 11 0 l 0 15 l -11 0 l 0 -15 z m 0 -25 l 11 0 l 0 15 l -11 0 l 0 -15 z m -18 50 l 11 0 l 0 15 l -11 0 l 0 -15 z m 0 -25 l 11 0 l 0 15 l -11 0 l 0 -15 z m 0 -25 l 11 0 l 0 15 l -11 0 l 0 -15 z m -18 50 l 11 0 l 0 15 l -11 0 l 0 -15 z m 0 -25 l 11 0 l 0 15 l -11 0 l 0 -15 z m 0 -25 l 11 0 l 0 15 l -11 0 l 0 -15 z m -18 50 l 11 0 l 0 15 l -11 0 l 0 -15 z m 0 -25 l 11 0 l 0 15 l -11 0 l 0 -15 z m 0 -25 l 11 0 l 0 15 l -11 0 l 0 -15 z m 54 -25 l 11 0 l 0 14 l -11 0 l 0 -14 z m -18 0 l 11 0 l 0 14 l -11 0 l 0 -14 z m -18 0 l 11 0 l 0 14 l -11 0 l 0 -14 z m -18 0 l 11 0 l 0 14 l -11 0 l 0 -14 z m -35 56 l 10 0 l 0 15 l -10 0 l 0 -15 z m -19 0 l 10 0 l 0 15 l -10 0 l 0 -15 z m -20 0 l 10 0 l 0 15 l -10 0 l 0 -15 z m 39 -22 l 10 0 l 0 14 l -10 0 l 0 -14 z m -19 0 l 10 0 l 0 14 l -10 0 l 0 -14 z m -20 0 l 10 0 l 0 14 l -10 0 l 0 -14 z m 39 -23 l 10 0 l 0 14 l -10 0 l 0 -14 z m -19 0 l 10 0 l 0 14 l -10 0 l 0 -14 z m -20 0 l 10 0 l 0 14 l -10 0 l 0 -14 z m 39 -23 l 10 0 l 0 14 l -10 0 l 0 -14 z m -19 0 l 10 0 l 0 14 l -10 0 l 0 -14 z m -20 0 l 10 0 l 0 14 l -10 0 l 0 -14 z m 39 -23 l 10 0 l 0 15 l -10 0 l 0 -15 z m -19 0 l 10 0 l 0 15 l -10 0 l 0 -15 z m -20 0 l 10 0 l 0 15 l -10 0 l 0 -15 z m -20 91 l 10 0 l 0 15 l -10 0 l 0 -15 z m 0 -22 l 10 0 l 0 14 l -10 0 l 0 -14 z m 0 -23 l 10 0 l 0 14 l -10 0 l 0 -14 z m 0 -23 l 10 0 l 0 14 l -10 0 l 0 -14 z m 0 -23 l 10 0 l 0 15 l -10 0 l 0 -15 z m -45 103 l 15 0 l 0 15 l -15 0 l 0 -15 z m 0 -34 l 15 0 l 0 14 l -15 0 l 0 -14 z m 0 -35 l 15 0 l 0 15 l -15 0 l 0 -15 z m 0 -34 l 15 0 l 0 15 l -15 0 l 0 -15 z m 0 -35 l 15 0 l 0 15 l -15 0 l 0 -15 z m -24 138 l 15 0 l 0 15 l -15 0 l 0 -15 z m 0 -34 l 15 0 l 0 14 l -15 0 l 0 -14 z m 0 -35 l 15 0 l 0 15 l -15 0 l 0 -15 z m 0 -34 l 15 0 l 0 15 l -15 0 l 0 -15 z m 0 -35 l 15 0 l 0 15 l -15 0 l 0 -15 z m 0 -34 l 15 0 l 0 15 l -15 0 l 0 -15 z m -25 168 l 20 0 l 0 25 l -20 0 l 0 -25 z m 0 -34 l 20 0 l 0 25 l -20 0 l 0 -25 z m 0 -34 l 20 0 l 0 25 l -20 0 l 0 -25 z m 0 -34 l 20 0 l 0 25 l -20 0 l 0 -25 z m 0 -34 l 20 0 l 0 25 l -20 0 l 0 -25 z m 0 -34 l 20 0 l 0 25 l -20 0 l 0 -25 z m 0 -34 l 20 0 l 0 24 l -20 0 l 0 -24 z m 0 -35 l 20 0 l 0 25 l -20 0 l 0 -25 z m -25 239 l 20 0 l 0 25 l -20 0 l 0 -25 z m 0 -34 l 20 0 l 0 25 l -20 0 l 0 -25 z m 0 -34 l 20 0 l 0 25 l -20 0 l 0 -25 z m 0 -34 l 20 0 l 0 25 l -20 0 l 0 -25 z m 0 -34 l 20 0 l 0 25 l -20 0 l 0 -25 z m 0 -34 l 20 0 l 0 25 l -20 0 l 0 -25 z m 0 -34 l 20 0 l 0 24 l -20 0 l 0 -24 z m 0 -35 l 20 0 l 0 25 l -20 0 l 0 -25 z m 25 -34 l 20 0 l 0 25 l -20 0 l 0 -25 z m -25 0 l 20 0 l 0 25 l -20 0 l 0 -25 z m -35 60 l 5 0 l 0 213 l -5 0 l 0 -213 z m -14 0 l 4 0 l 0 213 l -4 0 l 0 -213 z m -15 0 l 5 0 l 0 213 l -5 0 l 0 -213 z m -15 0 l 5 0 l 0 213 l -5 0 l 0 -213 z m -84 -80 l 5 0 l 0 70 l -5 0 l 0 -70 z m 10 0 l 5 0 l 0 70 l -5 0 l 0 -70 z m 9 0 l 20 0 l 0 70 l -20 0 l 0 -70 z m -59 300 l 10 0 l 0 17 l -10 0 l 0 -17 z m 0 -27 l 10 0 l 0 17 l -10 0 l 0 -17 z m 0 -27 l 10 0 l 0 17 l -10 0 l 0 -17 z m 0 -27 l 10 0 l 0 17 l -10 0 l 0 -17 z m 0 -27 l 10 0 l 0 17 l -10 0 l 0 -17 z m 80 108 l 10 0 l 0 17 l -10 0 l 0 -17 z m 0 -27 l 10 0 l 0 17 l -10 0 l 0 -17 z m 0 -27 l 10 0 l 0 17 l -10 0 l 0 -17 z m 0 -27 l 10 0 l 0 17 l -10 0 l 0 -17 z m 0 -27 l 10 0 l 0 17 l -10 0 l 0 -17 z m 0 -27 l 10 0 l 0 17 l -10 0 l 0 -17 z m 0 -27 l 10 0 l 0 17 l -10 0 l 0 -17 z m 0 -26 l 10 0 l 0 16 l -10 0 l 0 -16 z m -20 188 l 10 0 l 0 17 l -10 0 l 0 -17 z m 0 -27 l 10 0 l 0 17 l -10 0 l 0 -17 z m 0 -27 l 10 0 l 0 17 l -10 0 l 0 -17 z m 0 -27 l 10 0 l 0 17 l -10 0 l 0 -17 z m 0 -27 l 10 0 l 0 17 l -10 0 l 0 -17 z m 0 -27 l 10 0 l 0 17 l -10 0 l 0 -17 z m 0 -27 l 10 0 l 0 17 l -10 0 l 0 -17 z m 0 -26 l 10 0 l 0 16 l -10 0 l 0 -16 z m -21 188 l 11 0 l 0 17 l -11 0 l 0 -17 z m 0 -27 l 11 0 l 0 17 l -11 0 l 0 -17 z m 0 -27 l 11 0 l 0 17 l -11 0 l 0 -17 z m 0 -27 l 11 0 l 0 17 l -11 0 l 0 -17 z m 0 -27 l 11 0 l 0 17 l -11 0 l 0 -17 z m 0 -27 l 11 0 l 0 17 l -11 0 l 0 -17 z m 0 -27 l 11 0 l 0 17 l -11 0 l 0 -17 z m 0 -26 l 11 0 l 0 16 l -11 0 l 0 -16 z m -20 188 l 11 0 l 0 17 l -11 0 l 0 -17 z m 0 -27 l 11 0 l 0 17 l -11 0 l 0 -17 z m 0 -27 l 11 0 l 0 17 l -11 0 l 0 -17 z m 0 -27 l 11 0 l 0 17 l -11 0 l 0 -17 z m 0 -27 l 11 0 l 0 17 l -11 0 l 0 -17 z m 0 -27 l 11 0 l 0 17 l -11 0 l 0 -17 z m 0 -27 l 11 0 l 0 17 l -11 0 l 0 -17 z m 0 -26 l 11 0 l 0 16 l -11 0 l 0 -16 z m 61 -27 l 10 0 l 0 16 l -10 0 l 0 -16 z m -20 0 l 10 0 l 0 16 l -10 0 l 0 -16 z m -21 0 l 11 0 l 0 16 l -11 0 l 0 -16 z m -20 0 l 11 0 l 0 16 l -11 0 l 0 -16 z m -118 62 l 11 0 l 0 16 l -11 0 l 0 -16 z m 49 156 l 11 0 l 0 16 l -11 0 l 0 -16 z m 0 -22 l 11 0 l 0 16 l -11 0 l 0 -16 z m 0 -22 l 11 0 l 0 15 l -11 0 l 0 -15 z m 0 -23 l 11 0 l 0 16 l -11 0 l 0 -16 z m 0 -22 l 11 0 l 0 16 l -11 0 l 0 -16 z m 0 -22 l 11 0 l 0 16 l -11 0 l 0 -16 z m 0 -23 l 11 0 l 0 16 l -11 0 l 0 -16 z m -16 134 l 10 0 l 0 16 l -10 0 l 0 -16 z m 0 -22 l 10 0 l 0 16 l -10 0 l 0 -16 z m 0 -22 l 10 0 l 0 15 l -10 0 l 0 -15 z m 0 -23 l 10 0 l 0 16 l -10 0 l 0 -16 z m 0 -22 l 10 0 l 0 16 l -10 0 l 0 -16 z m 0 -22 l 10 0 l 0 16 l -10 0 l 0 -16 z m 0 -23 l 10 0 l 0 16 l -10 0 l 0 -16 z m -16 134 l 10 0 l 0 16 l -10 0 l 0 -16 z m 0 -22 l 10 0 l 0 16 l -10 0 l 0 -16 z m 0 -22 l 10 0 l 0 15 l -10 0 l 0 -15 z m 0 -23 l 10 0 l 0 16 l -10 0 l 0 -16 z m 0 -22 l 10 0 l 0 16 l -10 0 l 0 -16 z m 0 -22 l 10 0 l 0 16 l -10 0 l 0 -16 z m 0 -23 l 10 0 l 0 16 l -10 0 l 0 -16 z m -17 134 l 11 0 l 0 16 l -11 0 l 0 -16 z m 0 -22 l 11 0 l 0 16 l -11 0 l 0 -16 z m 0 -22 l 11 0 l 0 15 l -11 0 l 0 -15 z m 0 -23 l 11 0 l 0 16 l -11 0 l 0 -16 z m 0 -22 l 11 0 l 0 16 l -11 0 l 0 -16 z m 0 -22 l 11 0 l 0 16 l -11 0 l 0 -16 z m 0 -23 l 11 0 l 0 16 l -11 0 l 0 -16 z m 49 -22 l 11 0 l 0 16 l -11 0 l 0 -16 z m -16 0 l 10 0 l 0 16 l -10 0 l 0 -16 z m -16 0 l 10 0 l 0 16 l -10 0 l 0 -16 z m -111 81 l 18 0 l 0 14 l -18 0 l 0 -14 z m 46 81 l 18 0 l 0 15 l -18 0 l 0 -15 z m 0 -20 l 18 0 l 0 14 l -18 0 l 0 -14 z m 0 -21 l 18 0 l 0 15 l -18 0 l 0 -15 z m 0 -20 l 18 0 l 0 15 l -18 0 l 0 -15 z m -23 61 l 18 0 l 0 15 l -18 0 l 0 -15 z m 0 -20 l 18 0 l 0 14 l -18 0 l 0 -14 z m 0 -21 l 18 0 l 0 15 l -18 0 l 0 -15 z m 0 -20 l 18 0 l 0 15 l -18 0 l 0 -15 z m -23 61 l 18 0 l 0 15 l -18 0 l 0 -15 z m 0 -20 l 18 0 l 0 14 l -18 0 l 0 -14 z m 0 -21 l 18 0 l 0 15 l -18 0 l 0 -15 z m 0 -20 l 18 0 l 0 15 l -18 0 l 0 -15 z m 46 -20 l 18 0 l 0 14 l -18 0 l 0 -14 z m -23 0 l 18 0 l 0 14 l -18 0 l 0 -14 z m 606 -24 l 40 0 l 0 16 l 14 0 l 0 113 l -84 0 l 0 -113 l 30 0 l 0 -16 z m -64 -29 l 24 0 l 0 158 c -28 0 -56 0 -84 0 l 0 -193 l 60 0 l 0 35 z m -169 -183 l 25 0 l 0 15 l 35 0 l 0 84 l 39 39 l 1 203 l -110 0 l 0 -326 l 10 0 l 0 -15 z m -94 20 l 79 64 l 1 257 l -80 0 l 0 -321 z m -124 322 l 0 -149 l 25 -20 l 0 -94 l 15 0 l 0 -35 l 5 0 l 0 -39 l 10 0 l 0 -30 l 35 0 l 0 30 l 10 0 l 0 39 l 5 0 l 0 35 l 9 0 l 0 262 l -114 1 z m -54 -279 l 5 0 l 0 50 l 20 0 l 0 30 l 15 0 l 0 198 l -80 0 l 0 -198 l 15 0 l 0 -30 l 25 0 l 0 -50 z" stroke-linecap="round" />
</g>
</g>
</g>
<g transform="matrix(1 0 0 1 253.35050188058236 396.5429454606924)" style=""  ><path fill="#D5B038" opacity="1" d="M-69.07 6.15Q-69.07 7.01-68.88 7.40Q-68.70 7.79-68.15 7.95Q-67.59 8.11-66.41 8.11L-66.41 8.11Q-66.33 8.11-66.33 8.27Q-66.33 8.43-66.41 8.43L-66.41 8.43Q-67.38 8.43-67.89 8.41L-67.89 8.41L-69.88 8.38L-71.46 8.41Q-71.92 8.43-72.70 8.43L-72.70 8.43Q-72.75 8.43-72.75 8.27Q-72.75 8.11-72.70 8.11L-72.70 8.11Q-71.81 8.11-71.41 7.98Q-71.00 7.84-70.86 7.45Q-70.71 7.07-70.71 6.26L-70.71 6.26L-70.71-1.96Q-70.71-2.76-70.86-3.14Q-71.00-3.51-71.42-3.66Q-71.84-3.81-72.70-3.81L-72.70-3.81Q-72.75-3.81-72.75-3.97Q-72.75-4.13-72.70-4.13L-72.70-4.13L-71.49-4.10Q-70.47-4.05-69.90-4.05L-69.90-4.05Q-69.45-4.05-69.03-4.08Q-68.62-4.10-68.32-4.13L-68.32-4.13Q-67.49-4.21-66.76-4.21L-66.76-4.21Q-62.33-4.21-62.33-0.94L-62.33-0.94Q-62.33 0.35-62.99 1.23Q-63.65 2.10-64.65 2.53Q-65.66 2.96-66.74 2.96L-66.74 2.96Q-67.46 2.96-67.92 2.85L-67.92 2.85Q-67.97 2.85-67.97 2.72L-67.97 2.72Q-67.97 2.50-67.84 2.50L-67.84 2.50Q-67.43 2.58-67.00 2.58L-67.00 2.58Q-65.82 2.58-65.00 1.82Q-64.18 1.05-64.18-0.40L-64.18-0.40Q-64.18-2.09-65.06-2.96Q-65.93-3.84-67.41-3.84L-67.41-3.84Q-68.08-3.84-68.41-3.73Q-68.75-3.62-68.91-3.22Q-69.07-2.82-69.07-1.90L-69.07-1.90L-69.07 6.15Z"/><path fill="#D5B038" opacity="1" d="M-44.13 8.11Q-44.07 8.11-44.07 8.27Q-44.07 8.43-44.13 8.43L-44.13 8.43L-47.27 8.43Q-47.75 8.43-48.97 6.82Q-50.20 5.21-51.91 2.37L-51.91 2.37Q-52.42 2.47-53.07 2.47L-53.07 2.47Q-53.74 2.47-54.09 2.42L-54.09 2.42L-54.09 6.26Q-54.09 7.09-53.96 7.47Q-53.82 7.84-53.42 7.98Q-53.02 8.11-52.10 8.11L-52.10 8.11Q-52.05 8.11-52.05 8.27Q-52.05 8.43-52.10 8.43L-52.10 8.43Q-52.85 8.43-53.26 8.41L-53.26 8.41L-54.95 8.38L-56.53 8.41Q-56.99 8.43-57.77 8.43L-57.77 8.43Q-57.82 8.43-57.82 8.27Q-57.82 8.11-57.77 8.11L-57.77 8.11Q-56.88 8.11-56.47 7.98Q-56.05 7.84-55.89 7.45Q-55.73 7.07-55.73 6.26L-55.73 6.26L-55.73-1.96Q-55.73-2.76-55.87-3.14Q-56.02-3.51-56.44-3.66Q-56.85-3.81-57.74-3.81L-57.74-3.81Q-57.79-3.81-57.79-3.97Q-57.79-4.13-57.74-4.13L-57.74-4.13L-56.51-4.10Q-55.54-4.05-54.95-4.05L-54.95-4.05Q-54.47-4.05-54.05-4.08Q-53.63-4.10-53.34-4.13L-53.34-4.13Q-52.51-4.21-51.75-4.21L-51.75-4.21Q-50.01-4.21-49.10-3.54Q-48.18-2.87-48.18-1.61L-48.18-1.61Q-48.18-0.53-48.80 0.38Q-49.42 1.29-50.46 1.86L-50.46 1.86Q-48.96 4.33-47.93 5.66Q-46.89 6.98-46.02 7.55Q-45.15 8.11-44.13 8.11L-44.13 8.11ZM-54.09 1.94Q-53.61 2.02-52.88 2.02L-52.88 2.02Q-51.22 2.02-50.56 1.28Q-49.90 0.54-49.90-0.88L-49.90-0.88Q-49.90-3.84-52.45-3.84L-52.45-3.84Q-53.47-3.84-53.78-3.41Q-54.09-2.98-54.09-1.90L-54.09-1.90L-54.09 1.94Z"/><path fill="#D5B038" opacity="1" d="M-34.81 8.76Q-36.69 8.76-38.15 7.87Q-39.62 6.98-40.42 5.48Q-41.23 3.98-41.23 2.23L-41.23 2.23Q-41.23 0.14-40.14-1.38Q-39.05-2.90-37.38-3.67Q-35.70-4.45-33.95-4.45L-33.95-4.45Q-32.07-4.45-30.64-3.53Q-29.20-2.60-28.43-1.12Q-27.67 0.35-27.67 1.96L-27.67 1.96Q-27.67 3.76-28.64 5.33Q-29.60 6.90-31.24 7.83Q-32.88 8.76-34.81 8.76L-34.81 8.76ZM-34.11 8.19Q-32.02 8.19-30.77 6.72Q-29.52 5.24-29.52 2.64L-29.52 2.64Q-29.52 0.84-30.15-0.64Q-30.78-2.12-31.99-3.00Q-33.20-3.89-34.86-3.89L-34.86-3.89Q-37.01-3.89-38.19-2.45Q-39.38-1.02-39.38 1.56L-39.38 1.56Q-39.38 3.41-38.74 4.92Q-38.11 6.42-36.92 7.31Q-35.72 8.19-34.11 8.19L-34.11 8.19Z"/><path fill="#D5B038" opacity="1" d="M-19.61 6.15Q-19.61 7.01-19.43 7.40Q-19.24 7.79-18.69 7.95Q-18.14 8.11-16.96 8.11L-16.96 8.11Q-16.88 8.11-16.88 8.27Q-16.88 8.43-16.96 8.43L-16.96 8.43Q-17.92 8.43-18.43 8.41L-18.43 8.41L-20.42 8.38L-22.00 8.41Q-22.46 8.43-23.24 8.43L-23.24 8.43Q-23.29 8.43-23.29 8.27Q-23.29 8.11-23.24 8.11L-23.24 8.11Q-22.35 8.11-21.95 7.98Q-21.55 7.84-21.40 7.45Q-21.25 7.07-21.25 6.26L-21.25 6.26L-21.25-1.96Q-21.25-2.76-21.40-3.14Q-21.55-3.51-21.96-3.66Q-22.38-3.81-23.24-3.81L-23.24-3.81Q-23.29-3.81-23.29-3.97Q-23.29-4.13-23.24-4.13L-23.24-4.13L-22.03-4.10Q-21.01-4.05-20.45-4.05L-20.45-4.05Q-19.99-4.05-19.57-4.08Q-19.16-4.10-18.86-4.13L-18.86-4.13Q-18.03-4.21-17.30-4.21L-17.30-4.21Q-12.87-4.21-12.87-0.94L-12.87-0.94Q-12.87 0.35-13.53 1.23Q-14.19 2.10-15.20 2.53Q-16.20 2.96-17.28 2.96L-17.28 2.96Q-18.00 2.96-18.46 2.85L-18.46 2.85Q-18.51 2.85-18.51 2.72L-18.51 2.72Q-18.51 2.50-18.38 2.50L-18.38 2.50Q-17.98 2.58-17.55 2.58L-17.55 2.58Q-16.37 2.58-15.55 1.82Q-14.73 1.05-14.73-0.40L-14.73-0.40Q-14.73-2.09-15.60-2.96Q-16.47-3.84-17.95-3.84L-17.95-3.84Q-18.62-3.84-18.96-3.73Q-19.29-3.62-19.45-3.22Q-19.61-2.82-19.61-1.90L-19.61-1.90L-19.61 6.15Z"/><path fill="#D5B038" opacity="1" d="M1.81 4.86Q1.81 4.78 1.96 4.78Q2.11 4.78 2.11 4.86L2.11 4.86Q1.92 6.80 1.92 8.03L1.92 8.03Q1.92 8.25 1.84 8.34Q1.76 8.43 1.52 8.43L1.52 8.43L-8.31 8.43Q-8.36 8.43-8.36 8.27Q-8.36 8.11-8.31 8.11L-8.31 8.11Q-7.42 8.11-7.02 7.98Q-6.62 7.84-6.47 7.45Q-6.32 7.07-6.32 6.26L-6.32 6.26L-6.32-1.96Q-6.32-2.76-6.47-3.14Q-6.62-3.51-7.02-3.66Q-7.42-3.81-8.31-3.81L-8.31-3.81Q-8.36-3.81-8.36-3.97Q-8.36-4.13-8.31-4.13L-8.31-4.13L1.03-4.13Q1.30-4.13 1.30-3.92L1.30-3.92L1.33-2.25Q1.36-1.74 1.36-0.96L1.36-0.96Q1.36-0.88 1.19-0.88Q1.03-0.88 1.03-0.96L1.03-0.96Q0.93-2.20 0.13-2.99Q-0.66-3.78-1.81-3.78L-1.81-3.78L-2.56-3.78Q-3.50-3.78-3.93-3.63Q-4.36-3.49-4.52-3.11Q-4.69-2.73-4.69-1.93L-4.69-1.93L-4.69 1.75Q-2.08 1.72-1.13 1.60Q-0.17 1.48-0.04 1.48L-0.04 1.48Q0.09 1.48 0.09 2.04L0.09 2.04Q0.09 2.66-0.04 2.66L-0.04 2.66Q-0.15 2.66-1.11 2.51Q-2.08 2.37-4.69 2.31L-4.69 2.31L-4.69 6.15Q-4.69 6.93-4.52 7.32Q-4.36 7.71-3.92 7.86Q-3.48 8.01-2.56 8.01L-2.56 8.01L-1.28 8.01Q-0.20 8.01 0.66 7.13Q1.52 6.26 1.81 4.86L1.81 4.86Z"/><path fill="#D5B038" opacity="1" d="M20.31 8.11Q20.37 8.11 20.37 8.27Q20.37 8.43 20.31 8.43L20.31 8.43L17.17 8.43Q16.69 8.43 15.47 6.82Q14.24 5.21 12.53 2.37L12.53 2.37Q12.02 2.47 11.37 2.47L11.37 2.47Q10.70 2.47 10.35 2.42L10.35 2.42L10.35 6.26Q10.35 7.09 10.48 7.47Q10.62 7.84 11.02 7.98Q11.42 8.11 12.34 8.11L12.34 8.11Q12.39 8.11 12.39 8.27Q12.39 8.43 12.34 8.43L12.34 8.43Q11.59 8.43 11.18 8.41L11.18 8.41L9.49 8.38L7.91 8.41Q7.45 8.43 6.67 8.43L6.67 8.43Q6.62 8.43 6.62 8.27Q6.62 8.11 6.67 8.11L6.67 8.11Q7.56 8.11 7.97 7.98Q8.39 7.84 8.55 7.45Q8.71 7.07 8.71 6.26L8.71 6.26L8.71-1.96Q8.71-2.76 8.57-3.14Q8.42-3.51 8.00-3.66Q7.59-3.81 6.70-3.81L6.70-3.81Q6.65-3.81 6.65-3.97Q6.65-4.13 6.70-4.13L6.70-4.13L7.93-4.10Q8.90-4.05 9.49-4.05L9.49-4.05Q9.97-4.05 10.39-4.08Q10.81-4.10 11.10-4.13L11.10-4.13Q11.93-4.21 12.69-4.21L12.69-4.21Q14.43-4.21 15.34-3.54Q16.26-2.87 16.26-1.61L16.26-1.61Q16.26-0.53 15.64 0.38Q15.02 1.29 13.98 1.86L13.98 1.86Q15.48 4.33 16.51 5.66Q17.55 6.98 18.42 7.55Q19.29 8.11 20.31 8.11L20.31 8.11ZM10.35 1.94Q10.83 2.02 11.56 2.02L11.56 2.02Q13.22 2.02 13.88 1.28Q14.54 0.54 14.54-0.88L14.54-0.88Q14.54-3.84 11.99-3.84L11.99-3.84Q10.97-3.84 10.66-3.41Q10.35-2.98 10.35-1.90L10.35-1.90L10.35 1.94Z"/><path fill="#D5B038" opacity="1" d="M25.90-3.78Q24.88-3.78 24.29-3.50Q23.70-3.22 23.36-2.55Q23.02-1.88 22.84-0.64L22.84-0.64Q22.84-0.59 22.69-0.59Q22.54-0.59 22.54-0.64L22.54-0.64Q22.62-1.26 22.73-2.63Q22.84-4.00 22.84-4.72L22.84-4.72Q22.84-4.86 23.00-4.86Q23.16-4.86 23.16-4.72L23.16-4.72Q23.16-4.37 23.56-4.28Q23.96-4.18 24.55-4.18L24.55-4.18Q26.92-4.13 28.61-4.13L28.61-4.13L30.94-4.16Q31.43-4.18 32.21-4.18L32.21-4.18Q33.17-4.18 33.63-4.31Q34.09-4.43 34.22-4.83L34.22-4.83Q34.27-4.91 34.41-4.91Q34.54-4.91 34.54-4.83L34.54-4.83Q34.38-1.93 34.38-0.64L34.38-0.64Q34.38-0.59 34.23-0.59Q34.09-0.59 34.09-0.64L34.09-0.64Q34.06-1.85 33.80-2.52Q33.55-3.19 32.96-3.49Q32.37-3.78 31.32-3.78L31.32-3.78Q30.17-3.78 29.79-3.42Q29.41-3.06 29.41-1.96L29.41-1.96L29.41 6.26Q29.41 7.09 29.58 7.47Q29.74 7.84 30.19 7.98Q30.65 8.11 31.70 8.11L31.70 8.11Q31.78 8.11 31.78 8.27Q31.78 8.43 31.70 8.43L31.70 8.43Q30.86 8.43 30.41 8.41L30.41 8.41L28.53 8.38L26.73 8.41Q26.25 8.43 25.39 8.43L25.39 8.43Q25.33 8.43 25.33 8.27Q25.33 8.11 25.39 8.11L25.39 8.11Q26.41 8.11 26.89 7.98Q27.37 7.84 27.55 7.45Q27.72 7.07 27.72 6.26L27.72 6.26L27.72-2.01Q27.72-2.79 27.60-3.15Q27.48-3.51 27.11-3.65Q26.73-3.78 25.90-3.78L25.90-3.78Z"/><path fill="#D5B038" opacity="1" d="M42.49 6.26Q42.49 7.09 42.64 7.47Q42.79 7.84 43.19 7.98Q43.59 8.11 44.50 8.11L44.50 8.11Q44.56 8.11 44.56 8.27Q44.56 8.43 44.50 8.43L44.50 8.43Q43.75 8.43 43.32 8.41L43.32 8.41L41.63 8.38L40.05 8.41Q39.59 8.43 38.81 8.43L38.81 8.43Q38.76 8.43 38.76 8.27Q38.76 8.11 38.81 8.11L38.81 8.11Q39.72 8.11 40.13 7.98Q40.53 7.84 40.68 7.47Q40.83 7.09 40.83 6.26L40.83 6.26L40.83-1.96Q40.83-2.76 40.68-3.14Q40.53-3.51 40.11-3.66Q39.70-3.81 38.81-3.81L38.81-3.81Q38.76-3.81 38.76-3.97Q38.76-4.13 38.81-4.13L38.81-4.13L40.05-4.10Q41.01-4.05 41.63-4.05L41.63-4.05Q42.33-4.05 43.35-4.10L43.35-4.10L44.50-4.13Q44.56-4.13 44.56-3.97Q44.56-3.81 44.50-3.81L44.50-3.81Q43.64-3.81 43.22-3.65Q42.79-3.49 42.64-3.10Q42.49-2.71 42.49-1.90L42.49-1.90L42.49 6.26Z"/><path fill="#D5B038" opacity="1" d="M59.16 4.86Q59.16 4.78 59.31 4.78Q59.46 4.78 59.46 4.86L59.46 4.86Q59.27 6.80 59.27 8.03L59.27 8.03Q59.27 8.25 59.19 8.34Q59.11 8.43 58.87 8.43L58.87 8.43L49.04 8.43Q48.99 8.43 48.99 8.27Q48.99 8.11 49.04 8.11L49.04 8.11Q49.93 8.11 50.33 7.98Q50.73 7.84 50.88 7.45Q51.03 7.07 51.03 6.26L51.03 6.26L51.03-1.96Q51.03-2.76 50.88-3.14Q50.73-3.51 50.33-3.66Q49.93-3.81 49.04-3.81L49.04-3.81Q48.99-3.81 48.99-3.97Q48.99-4.13 49.04-4.13L49.04-4.13L58.39-4.13Q58.65-4.13 58.65-3.92L58.65-3.92L58.68-2.25Q58.71-1.74 58.71-0.96L58.71-0.96Q58.71-0.88 58.55-0.88Q58.39-0.88 58.39-0.96L58.39-0.96Q58.28-2.20 57.49-2.99Q56.69-3.78 55.54-3.78L55.54-3.78L54.79-3.78Q53.85-3.78 53.42-3.63Q52.99-3.49 52.83-3.11Q52.67-2.73 52.67-1.93L52.67-1.93L52.67 1.75Q55.27 1.72 56.22 1.60Q57.18 1.48 57.31 1.48L57.31 1.48Q57.45 1.48 57.45 2.04L57.45 2.04Q57.45 2.66 57.31 2.66L57.31 2.66Q57.20 2.66 56.24 2.51Q55.27 2.37 52.67 2.31L52.67 2.31L52.67 6.15Q52.67 6.93 52.83 7.32Q52.99 7.71 53.43 7.86Q53.87 8.01 54.79 8.01L54.79 8.01L56.08 8.01Q57.15 8.01 58.01 7.13Q58.87 6.26 59.16 4.86L59.16 4.86Z"/><path fill="#D5B038" opacity="1" d="M66.25-1.96Q66.25-1.15 66.67-0.55Q67.08 0.06 67.70 0.46Q68.32 0.86 69.34 1.40L69.34 1.40Q70.44 1.99 71.11 2.43Q71.78 2.88 72.24 3.55Q72.70 4.22 72.70 5.16L72.70 5.16Q72.70 6.15 72.15 6.97Q71.60 7.79 70.58 8.27Q69.55 8.76 68.19 8.76L68.19 8.76Q66.23 8.76 64.94 7.82L64.94 7.82Q64.80 7.76 64.76 7.66Q64.72 7.55 64.70 7.31L64.70 7.31L64.43 4.65Q64.40 4.54 64.55 4.51Q64.70 4.49 64.75 4.60L64.75 4.60Q65.12 6.15 66.24 7.24Q67.35 8.33 68.72 8.33L68.72 8.33Q69.66 8.33 70.35 7.78Q71.03 7.23 71.03 6.07L71.03 6.07Q71.03 4.84 70.23 4.06Q69.42 3.28 67.89 2.47L67.89 2.47Q66.82 1.88 66.19 1.44Q65.55 1.00 65.12 0.35Q64.70-0.29 64.70-1.20L64.70-1.20Q64.70-2.73 65.88-3.59Q67.06-4.45 68.75-4.45L68.75-4.45Q70.17-4.45 71.43-3.84L71.43-3.84Q71.68-3.70 71.74-3.63Q71.81-3.57 71.84-3.38L71.84-3.38L72.03-1.04Q72.03-0.94 71.88-0.91Q71.73-0.88 71.70-0.99L71.70-0.99Q71.57-1.66 71.10-2.37Q70.63-3.08 69.89-3.57Q69.15-4.05 68.27-4.05L68.27-4.05Q67.30-4.05 66.78-3.46Q66.25-2.87 66.25-1.96L66.25-1.96Z"/></g><g transform="matrix(0.7331042382588775 0 0 0.7331042382588775 140 399)"  >
<path style="stroke: none; stroke-width: 0; stroke-dasharray: none; stroke-linecap: butt; stroke-dashoffset: 0; stroke-linejoin: miter; stroke-miterlimit: 4; fill: rgb(213,176,56); fill-rule: nonzero; opacity: 1;"  transform=" translate(-49.95, -50)" d="M 91.7 49 H 8.3 c -0.6 0 -1 0.4 -1 1 s 0.4 1 1 1 h 83.3 c 0.6 0 1 -0.4 1 -1 S 92.2 49 91.7 49 z" stroke-linecap="round" />
</g>
<g transform="matrix(0.7331042382588775 0 0 0.7331042382588775 363.5 399)"  >
<path style="stroke: none; stroke-width: 0; stroke-dasharray: none; stroke-linecap: butt; stroke-dashoffset: 0; stroke-linejoin: miter; stroke-miterlimit: 4; fill: rgb(213,176,56); fill-rule: nonzero; opacity: 1;"  transform=" translate(-49.95, -50)" d="M 91.7 49 H 8.3 c -0.6 0 -1 0.4 -1 1 s 0.4 1 1 1 h 83.3 c 0.6 0 1 -0.4 1 -1 S 92.2 49 91.7 49 z" stroke-linecap="round" />
</g>
</svg>